<?xml version="1.0" encoding="UTF-8" standalone="no"?>
<!DOCTYPE svg PUBLIC "-//W3C//DTD SVG 1.1//EN" "http://www.w3.org/Graphics/SVG/1.1/DTD/svg11.dtd">
<svg class="25years" width="100%" height="100%" viewBox="0 0 923 957" version="1.1" xmlns="http://www.w3.org/2000/svg" xmlns:xlink="http://www.w3.org/1999/xlink" xml:space="preserve" xmlns:serif="http://www.serif.com/" style="fill-rule:evenodd;clip-rule:evenodd;stroke-miterlimit:10;">
    <g transform="matrix(1,0,0,1,-129.138,-114.834)">
        <g id="Layer-1" serif:id="Layer 1" transform="matrix(4.16667,0,0,4.16667,0,0)">
            <g transform="matrix(0,-215.347,-215.347,0,141.733,246.676)">
                <path d="M0.833,0.44C0.723,0.444 0.584,0.435 0.485,0.421C0.371,0.405 0.087,0.34 0,0C0.087,-0.34 0.371,-0.405 0.485,-0.421C0.584,-0.435 0.723,-0.444 0.833,-0.44C0.898,-0.206 0.978,-0.047 1,0C0.978,0.047 0.898,0.206 0.833,0.44Z" style="fill:url(#_Linear1);fill-rule:nonzero;"/>
            </g>
            <g transform="matrix(1,0,0,1,236.519,210.773)">
                <path d="M0,-143.541C-50.396,-157.54 -84.724,-174.781 -94.787,-179.444C-104.851,-174.781 -139.179,-157.54 -189.574,-143.541C-190.359,-119.873 -188.488,-89.787 -185.477,-68.52C-181.999,-43.941 -168.061,17.266 -94.787,35.903C-21.514,17.266 -7.576,-43.941 -4.098,-68.52C-1.086,-89.787 0.784,-119.873 0,-143.541Z" style="fill:none;fill-rule:nonzero;stroke:url(#_Linear2);stroke-width:0.75px;"/>
            </g>
            <g transform="matrix(1,0,0,1,141.732,43.7514)">
                <path d="M0,191.25C-64.42,173.459 -76.331,119.414 -79.515,96.919C-82.28,77.392 -83.81,51.964 -83.667,32.045C-54.503,23.519 -28.001,12.746 0,0C28.006,12.749 54.503,23.519 83.668,32.045C83.81,51.968 82.281,77.396 79.516,96.919C76.332,119.414 64.419,173.461 0,191.25Z" style="fill:rgb(138,36,50);stroke:url(#_Linear3);stroke-width:1px;"/>
            </g>
            <g transform="matrix(1,0,0,1,74.645,252.136)">
                <path d="M0,-38.384L8.22,-14.955C-8.787,-9.009 -23.206,-0.062 -23.285,0L-22.012,-15.081L-38.627,-19.71C-38.627,-19.71 -22.95,-30.113 0,-38.384Z" style="fill:rgb(61,57,57);fill-rule:nonzero;stroke:white;stroke-width:1px;"/>
            </g>
            <g transform="matrix(1,0,0,1,208.819,252.136)">
                <path d="M0,-38.384L-8.22,-14.955C8.787,-9.009 23.206,-0.062 23.285,0L22.013,-15.081L38.627,-19.71C38.627,-19.71 22.95,-30.113 0,-38.384Z" style="fill:rgb(61,57,57);fill-rule:nonzero;stroke:white;stroke-width:1px;"/>
            </g>
            <g transform="matrix(1,0,0,1,232.826,214.752)">
                <path d="M0,-8.408L-15.956,20.033C-38.858,9.766 -64.247,4.053 -90.973,4.053C-117.698,4.053 -143.092,9.766 -165.994,20.033L-181.855,-8.443C-181.487,-8.617 -181.119,-8.786 -180.751,-8.955C-153.409,-21.47 -123.004,-28.441 -90.973,-28.441C-61.145,-28.441 -32.728,-22.395 -6.877,-11.461C-6.857,-11.451 -6.832,-11.441 -6.808,-11.431C-4.521,-10.462 -2.248,-9.457 0,-8.408Z" style="fill:rgb(83,77,77);fill-rule:nonzero;stroke:white;stroke-width:1px;"/>
            </g>
            <g transform="matrix(1,0,0,1,67.7686,218.325)">
                <path d="M0,-8.102L5.205,-10.021L5.279,-9.987L9.233,0.741L9.2,0.815L6.202,1.919L6.128,1.885L3.024,-6.534L0.871,-5.74L0.8,-5.766L-0.034,-8.028L0,-8.102Z" style="fill:white;fill-rule:nonzero;"/>
            </g>
            <g transform="matrix(1,0,0,1,80.0327,212.273)">
                <path d="M0,-4.026L0.614,-1.944L8.333,-4.221L7.719,-6.303L0,-4.026ZM-2.079,-6.081L8.349,-9.158C8.882,-9.315 9.489,-9.144 10.169,-8.644C10.574,-8.207 10.834,-7.794 10.949,-7.403L13.61,1.615L13.571,1.687L1.474,5.256C1.41,5.235 1.207,5.246 0.864,5.289C0.268,5.253 -0.238,5.03 -0.651,4.618C-1.01,4.202 -1.229,3.856 -1.31,3.581L-1.293,3.551L9.672,0.316L9.074,-1.712L0.405,0.846C-0.73,1.181 -1.65,0.816 -2.354,-0.25L-2.616,-0.844L-3.31,-3.196C-3.553,-4.019 -3.401,-4.797 -2.855,-5.533C-2.569,-5.83 -2.311,-6.012 -2.079,-6.081" style="fill:white;fill-rule:nonzero;"/>
            </g>
            <g transform="matrix(1,0,0,1,97.4922,208.444)">
                <path d="M0,-4.903L0.426,-2.774L8.318,-4.353L7.892,-6.482L0,-4.903ZM-1.886,-7.135L8.774,-9.268C9.318,-9.377 9.908,-9.153 10.542,-8.594C10.905,-8.124 11.127,-7.688 11.207,-7.289L13.052,1.931L13.006,1.999L0.639,4.474C0.577,4.447 0.374,4.44 0.028,4.452C-0.562,4.364 -1.045,4.095 -1.421,3.649C-1.74,3.201 -1.928,2.838 -1.984,2.557L-1.965,2.529L9.246,0.284L8.831,-1.787L-0.032,-0.013C-1.192,0.218 -2.076,-0.228 -2.682,-1.352L-2.89,-1.967L-3.371,-4.372C-3.539,-5.214 -3.318,-5.975 -2.708,-6.659C-2.398,-6.928 -2.124,-7.088 -1.886,-7.135" style="fill:white;fill-rule:nonzero;"/>
            </g>
            <g transform="matrix(1,0,0,1,111.655,208.427)">
                <path d="M0,-10.194L12.318,-11.533C13.401,-11.651 14.205,-11.21 14.729,-10.21C14.877,-9.861 14.96,-9.606 14.978,-9.448L14.956,-9.421L3.59,-8.185L3.818,-6.084L12.804,-7.061C13.98,-7.189 14.821,-6.666 15.325,-5.492L15.476,-4.861L15.741,-2.423C15.839,-1.526 15.526,-0.764 14.803,-0.137C14.445,0.09 14.127,0.218 13.848,0.248L3.385,1.386C2.729,1.457 2.124,1.194 1.572,0.595C1.217,0.13 1.014,-0.34 0.962,-0.816L0.953,-0.898L1.004,-0.962L12.337,-2.194L12.104,-4.344L3.117,-3.368C1.941,-3.239 1.101,-3.762 0.597,-4.936L0.444,-5.576L-0.052,-10.138L0,-10.194Z" style="fill:white;fill-rule:nonzero;"/>
            </g>
            <g transform="matrix(1,0,0,1,150.131,208.802)">
                <path d="M0,-12.343L10.667,-11.634C11.215,-11.598 11.721,-11.23 12.182,-10.532C12.405,-9.999 12.504,-9.53 12.477,-9.122L12.317,-6.726C12.258,-5.831 11.823,-5.146 11.015,-4.67C10.633,-4.491 10.22,-4.416 9.775,-4.447L0.904,-5.035L0.767,-2.969L11.961,-2.225L12.014,-2.163C11.983,-1.701 11.737,-1.192 11.275,-0.632C10.768,-0.202 10.263,-0.004 9.764,-0.037L9.702,0.016L-2.678,-0.806L-2.731,-0.868L-2.431,-5.398C-2.371,-6.293 -1.937,-6.976 -1.128,-7.446C-0.752,-7.624 -0.339,-7.699 0.111,-7.669L8.982,-7.08L9.124,-9.213L-2.069,-9.957L-2.124,-10.01L-2.118,-10.093C-2.063,-10.939 -1.656,-11.607 -0.901,-12.097C-0.542,-12.277 -0.242,-12.359 0,-12.343" style="fill:white;fill-rule:nonzero;"/>
            </g>
            <g transform="matrix(1,0,0,1,169.141,208.61)">
                <path d="M0,-8.168L-1.048,-1.422L6.823,-0.199L7.871,-6.945L0,-8.168ZM-0.599,-10.658L9.197,-9.137C10.355,-8.957 11.027,-8.243 11.212,-6.994L11.207,-6.427L10.14,0.449C10.003,1.33 9.507,1.978 8.651,2.39C8.253,2.518 7.918,2.56 7.646,2.518L-2.647,0.919C-3.295,0.818 -3.805,0.411 -4.179,-0.305C-4.396,-0.84 -4.469,-1.341 -4.396,-1.809L-3.341,-8.604C-3.202,-9.495 -2.706,-10.142 -1.854,-10.544C-1.463,-10.689 -1.045,-10.728 -0.599,-10.658" style="fill:white;fill-rule:nonzero;"/>
            </g>
            <g transform="matrix(1,0,0,1,186.006,214.923)">
                <path d="M0,-13.886L10.378,-11.322C10.912,-11.19 11.345,-10.74 11.677,-9.972C11.804,-9.407 11.818,-8.927 11.721,-8.532L11.145,-6.2C10.929,-5.329 10.382,-4.731 9.502,-4.404C9.095,-4.294 8.675,-4.293 8.242,-4.4L-0.389,-6.533L-0.885,-4.522L10.005,-1.83L10.048,-1.76C9.937,-1.312 9.604,-0.853 9.052,-0.382C8.477,-0.048 7.945,0.058 7.459,-0.062L7.39,-0.019L-4.655,-2.995L-4.697,-3.067L-3.608,-7.473C-3.394,-8.344 -2.846,-8.94 -1.968,-9.262C-1.566,-9.372 -1.146,-9.373 -0.708,-9.265L7.923,-7.132L8.436,-9.207L-2.455,-11.9L-2.499,-11.961L-2.479,-12.041C-2.276,-12.865 -1.76,-13.45 -0.931,-13.801C-0.545,-13.916 -0.235,-13.944 0,-13.886" style="fill:white;fill-rule:nonzero;"/>
            </g>
            <g transform="matrix(1,0,0,1,204.027,217.523)">
                <path d="M0,-9.231L-2.218,-2.775L5.315,-0.187L7.534,-6.643L0,-9.231ZM-0.151,-11.789L9.225,-8.567C10.333,-8.186 10.869,-7.365 10.831,-6.104L10.727,-5.546L8.466,1.036C8.176,1.878 7.574,2.428 6.66,2.684C6.245,2.74 5.907,2.722 5.647,2.633L-4.205,-0.752C-4.824,-0.964 -5.255,-1.457 -5.496,-2.226C-5.616,-2.791 -5.6,-3.297 -5.445,-3.745L-3.212,-10.248C-2.918,-11.101 -2.316,-11.651 -1.406,-11.896C-0.996,-11.971 -0.578,-11.935 -0.151,-11.789" style="fill:white;fill-rule:nonzero;"/>
            </g>
            <g transform="matrix(1,0,0,1,133.333,201.441)">
                <path d="M0,1.67C-0.397,1.67 -0.728,1.357 -0.745,0.955C-0.762,0.544 -0.442,0.196 -0.03,0.179C2.799,0.061 5.676,0 8.52,0C8.931,0 9.265,0.334 9.265,0.746C9.265,1.158 8.931,1.492 8.52,1.492C5.697,1.492 2.841,1.552 0.032,1.67L0,1.67Z" style="fill:white;fill-rule:nonzero;"/>
            </g>
            <g transform="matrix(1,0,0,1,79.3867,176.813)">
                <path d="M0,-9.037L3.295,-9.037C3.437,-8.895 4.415,-7.684 6.229,-5.404L6.247,-5.379L6.272,-5.379C8.144,-7.734 9.127,-8.954 9.224,-9.037L12.519,-9.037L12.544,-9.017L12.563,-9.017L7.673,-3.128L7.673,-0.044L7.629,0L4.865,0L4.827,-0.044L4.827,-3.128L-0.044,-8.993L0,-9.037Z" style="fill:white;fill-rule:nonzero;"/>
            </g>
            <g transform="matrix(1,0,0,1,96.1147,173.202)">
                <path d="M0,-1.724L7.004,-1.724L7.042,-1.686L7.042,0.172L7.004,0.215L0,0.215L-0.043,0.172L-0.043,-1.686L0,-1.724ZM-3.252,-5.271L7.667,-5.271L7.71,-5.227L7.71,-3.375L7.667,-3.331L-0.794,-3.331L-0.794,1.61L7.667,1.61L7.71,1.652L7.71,3.504L7.667,3.547L-3.252,3.547L-3.295,3.504L-3.295,-5.227L-3.252,-5.271Z" style="fill:white;fill-rule:nonzero;"/>
            </g>
            <g transform="matrix(1,0,0,1,113.035,176.763)">
                <path d="M0,-8.976C0.05,-8.942 4.921,-0.02 4.921,-0.02L4.896,0L1.825,0C1.784,0 1.521,-0.468 1.038,-1.403L0.932,-1.527L-4.034,-1.527L-4.034,-1.571L-2.971,-3.459L-0.088,-3.459L-0.088,-3.478C-1.176,-5.508 -1.756,-6.57 -1.827,-6.662L-5.41,0L-8.487,0L-8.531,-0.044L-3.609,-8.956L-3.589,-8.976L0,-8.976Z" style="fill:white;fill-rule:nonzero;"/>
            </g>
            <g transform="matrix(1,0,0,1,118.633,176.813)">
                <path d="M0,-9.018L9.425,-9.018C10.271,-9.018 10.838,-8.571 11.125,-7.675C11.185,-7.516 11.213,-7.344 11.213,-7.163L11.213,-5.391C11.213,-4.75 10.942,-4.224 10.4,-3.817C10.1,-3.633 9.781,-3.541 9.444,-3.541L8.08,-3.541L11.552,-0.02L11.552,0L8.124,0L2.771,-5.33L2.771,-5.355L8.631,-5.355L8.631,-7.037L2.558,-7.037L2.558,-7.017L2.533,-0.02L2.515,0L0,0L-0.043,-0.044L-0.043,-8.976L0,-9.018Z" style="fill:white;fill-rule:nonzero;"/>
            </g>
            <g transform="matrix(1,0,0,1,132.325,176.813)">
                <path d="M0,-8.968L7.93,-8.968C8.426,-8.968 8.858,-8.721 9.224,-8.224C9.449,-7.849 9.562,-7.482 9.562,-7.124L9.562,-7.061L9.518,-7.017L0.933,-7.017L0.933,-5.385L7.736,-5.385C8.628,-5.385 9.216,-4.926 9.499,-4.01L9.562,-3.522L9.562,-1.89C9.562,-1.227 9.279,-0.689 8.711,-0.276C8.491,-0.152 8.23,-0.066 7.93,-0.02L7.911,0L0.019,0C-0.023,-0.03 -0.171,-0.066 -0.425,-0.108C-0.846,-0.257 -1.163,-0.527 -1.376,-0.914C-1.546,-1.289 -1.632,-1.584 -1.632,-1.802L-1.613,-1.827L6.999,-1.827L6.999,-3.415L0.194,-3.415C-0.698,-3.415 -1.286,-3.874 -1.569,-4.79L-1.632,-5.279L-1.632,-7.124C-1.632,-7.799 -1.336,-8.343 -0.744,-8.756C-0.46,-8.898 -0.212,-8.968 0,-8.968" style="fill:white;fill-rule:nonzero;"/>
            </g>
            <g transform="matrix(1,0,0,1,180.84,150.019)">
                <path d="M0,-51.154C-4.532,-53.05 -9.375,-54.011 -14.392,-54.011C-18.354,-54.011 -22.32,-53.414 -25.908,-52.279L-25.907,-52.472C-25.896,-54.523 -25.883,-61.684 -25.883,-61.684L9.621,-61.687L9.621,-72.571L-36.782,-72.571L-36.782,-24.77C-36.782,-24.77 11.955,-28.829 11.955,-16.298C11.955,-1.747 0.117,10.09 -14.434,10.09C-20.889,10.09 -27.106,7.729 -31.94,3.439L-32.358,3.068L-40.368,11.083L-39.913,11.501C-32.948,17.896 -23.899,21.417 -14.434,21.417C6.362,21.417 23.282,4.498 23.282,-16.298C23.282,-31.611 14.143,-45.293 0,-51.154" style="fill:white;fill-rule:nonzero;"/>
            </g>
            <g transform="matrix(1,0,0,1,106.845,88.1437)">
                <path d="M0,61.179C0,61.179 14.484,46.257 17.807,42.853C30.027,30.336 32.725,16.368 29.424,6.484C25.608,-4.479 15.243,-11.846 3.631,-11.846C-11.427,-11.846 -23.677,0.403 -23.677,15.458L-12.42,15.458C-12.42,6.61 -5.22,-0.589 3.631,-0.589C12.479,-0.589 19.678,6.61 19.678,15.458C19.678,18.089 17.517,27.683 6.402,38.798C5.482,39.775 -27.502,73.025 -27.502,73.025L52.104,73.025L52.104,61.179L0,61.179Z" style="fill:white;fill-rule:nonzero;"/>
            </g>
            <g transform="matrix(0,-1,-1,0,167.552,107.761)">
                <path d="M-25.958,-25.958C-11.622,-25.958 0,-14.336 0,0C0,14.337 -11.622,25.958 -25.958,25.958C-40.295,25.958 -51.917,14.337 -51.917,0C-51.917,-14.336 -40.295,-25.958 -25.958,-25.958" style="fill:white;fill-rule:nonzero;"/>
            </g>
            <g transform="matrix(1,0,0,1,166.605,133.72)">
                <path d="M0,0C0,5.272 2.274,10.436 6.299,13.878C7.278,14.715 8.351,15.444 9.493,16.042C5.077,12.957 2.237,7.966 1.55,2.658C0.839,-2.825 2.381,-8.533 5.949,-12.789C6.982,-14.021 8.174,-15.121 9.493,-16.042C4.899,-13.64 1.602,-9.176 0.461,-4.146C0.153,-2.787 0,-1.394 0,0" style="fill:rgb(138,36,50);fill-rule:nonzero;"/>
            </g>
            <g transform="matrix(1,0,0,1,168.058,123.839)">
                <path d="M0,19.76C-3.171,14.29 -3.479,7.381 -0.847,1.637C-0.591,1.078 -0.308,0.532 0,0C-0.197,0.021 -0.396,0.043 -0.593,0.066C-0.823,0.093 -0.871,0.183 -1.01,0.361C-1.241,0.658 -1.463,0.965 -1.671,1.28C-2.074,1.887 -2.433,2.524 -2.744,3.184C-3.376,4.526 -3.811,5.959 -4.038,7.424C-4.5,10.399 -4.111,13.501 -2.89,16.257C-2.347,17.482 -1.642,18.635 -0.792,19.672L0,19.76Z" style="fill:rgb(220,7,50);fill-rule:nonzero;"/>
            </g>
            <g transform="matrix(1,0,0,1,162.654,133.72)">
                <path d="M0,0C0,-5.226 2.453,-10.377 6.775,-13.397C2.091,-10.947 -0.886,-5.993 -1.134,-0.753C-1.385,4.538 1.127,9.787 5.596,12.705C5.978,12.955 6.371,13.186 6.775,13.397C2.453,10.376 0,5.226 0,0" style="fill:rgb(156,25,25);fill-rule:nonzero;"/>
            </g>
            <g transform="matrix(1,0,0,1,166.449,160.619)">
                <path d="M0,-53.374C-4.878,-53.374 -9.713,-52.02 -13.87,-49.467C-17.898,-46.993 -21.236,-43.442 -23.449,-39.268C-25.749,-34.93 -26.785,-29.982 -26.454,-25.087C-26.127,-20.266 -24.458,-15.578 -21.664,-11.631C-18.931,-7.773 -15.166,-4.67 -10.847,-2.735C-6.332,-0.711 -1.271,0 3.63,-0.671C8.433,-1.329 13.009,-3.33 16.759,-6.396C20.462,-9.424 23.314,-13.448 24.932,-17.946C25.749,-20.222 26.25,-22.608 26.42,-25.02L13.669,-25.02C14.976,-22.722 18.602,-16.343 19.109,-15.451C18.038,-15.303 16.969,-15.144 15.896,-15.008C13.759,-14.739 11.594,-14.63 9.44,-14.596C9.125,-14.591 8.81,-14.588 8.495,-14.587C9.057,-14.007 9.661,-13.468 10.303,-12.978C10.369,-12.927 10.865,-12.597 10.841,-12.557C10.799,-12.487 8.796,-9.2 8.738,-9.105C8.681,-9.011 8.702,-8.985 8.592,-9.043C7.233,-9.762 5.963,-10.645 4.812,-11.665C4.199,-12.208 3.62,-12.791 3.079,-13.406C2.74,-12.849 2.4,-12.292 2.062,-11.736C1.959,-11.567 1.834,-11.735 1.68,-11.82C1.331,-12.013 0.989,-12.218 0.655,-12.436C0.02,-12.85 -0.587,-13.309 -1.16,-13.807C-1.728,-14.3 -2.263,-14.832 -2.76,-15.398C-2.986,-15.656 -3.444,-15.65 -3.774,-15.717C-5.133,-15.997 -6.48,-16.329 -7.809,-16.732C-12.74,-18.229 -17.466,-20.742 -20.861,-24.689C-21.411,-25.329 -21.914,-26.007 -22.427,-26.676C-22.457,-26.716 -22.598,-26.848 -22.598,-26.9C-22.598,-26.96 -22.436,-27.111 -22.4,-27.157L-21.686,-28.09C-20.298,-29.901 -18.644,-31.482 -16.783,-32.804C-14.632,-34.333 -12.244,-35.513 -9.767,-36.415C-8.393,-36.916 -6.989,-37.332 -5.569,-37.68C-4.963,-37.828 -4.353,-37.962 -3.741,-38.088C-3.549,-38.127 -3.355,-38.167 -3.163,-38.207C-2.914,-38.258 -2.878,-38.269 -2.7,-38.469C-1.45,-39.874 0.032,-41.069 1.68,-41.979C1.723,-42.002 1.995,-42.173 2.015,-42.141C2.045,-42.09 2.882,-40.717 3.079,-40.393C4.085,-41.536 5.221,-42.563 6.463,-43.444C7.092,-43.891 7.749,-44.299 8.428,-44.667C8.536,-44.726 8.637,-44.861 8.711,-44.738C8.767,-44.648 10.777,-41.348 10.823,-41.271C10.896,-41.152 10.547,-41.005 10.458,-40.938C9.758,-40.417 9.102,-39.838 8.495,-39.212C10.887,-39.206 13.288,-39.099 15.665,-38.819C16.784,-38.686 17.898,-38.515 19.015,-38.361C19.046,-38.356 19.077,-38.353 19.108,-38.348C17.803,-36.051 14.176,-29.672 13.669,-28.78L26.42,-28.78C26.077,-33.641 24.372,-38.365 21.527,-42.326C18.745,-46.201 14.917,-49.298 10.536,-51.198C7.22,-52.636 3.615,-53.374 0,-53.374" style="fill:rgb(138,36,50);fill-rule:nonzero;"/>
            </g>
            <g transform="matrix(1,0,0,1,163.016,133.72)">
                <path d="M0,9.111C-1.68,6.551 -2.6,3.531 -2.684,0.475C-2.686,0.42 -2.675,0 -2.704,0L-16.521,0C-13.047,4.535 -7.718,7.153 -2.291,8.577C-1.911,8.676 -1.526,8.756 -1.144,8.844C-0.81,8.933 -0.434,9.022 0,9.111" style="fill:rgb(138,36,50);fill-rule:nonzero;"/>
            </g>
            <g transform="matrix(1,0,0,1,176.667,143.874)">
                <path d="M0,-10.098C-0.08,-10.239 -0.484,-10.155 -0.627,-10.155L-7.505,-10.155C-7.505,-6.577 -6.506,-3.01 -4.577,0.011C-1.222,0.141 2.201,0.09 5.536,-0.36C4.236,-2.646 0.545,-9.138 0,-10.098" style="fill:rgb(138,36,50);fill-rule:nonzero;"/>
            </g>
            <g transform="matrix(1,0,0,1,163.016,133.719)">
                <path d="M0,-9.111C-0.434,-9.022 -0.81,-8.933 -1.144,-8.844C-1.526,-8.756 -1.911,-8.676 -2.291,-8.577C-7.718,-7.153 -13.047,-4.535 -16.521,0L-2.704,0C-2.675,0 -2.686,-0.42 -2.684,-0.475C-2.6,-3.531 -1.68,-6.551 0,-9.111" style="fill:rgb(220,7,50);fill-rule:nonzero;"/>
            </g>
            <g transform="matrix(1,0,0,1,0,-16.028)">
                <rect x="175.312" y="148.838" width="17.534" height="1.817" style="fill:rgb(138,36,50);"/>
            </g>
            <g transform="matrix(1,0,0,1,182.203,133.229)">
                <path d="M0,-9.303C-1.298,-7.02 -5.039,-0.442 -5.562,0.493L-13.046,0.493C-13.046,-2.997 -12.09,-6.477 -10.26,-9.444C-10.219,-9.514 -10.169,-9.595 -10.118,-9.676C-9.917,-9.685 -9.736,-9.685 -9.565,-9.685C-6.387,-9.796 -3.158,-9.736 0,-9.303" style="fill:rgb(220,7,50);fill-rule:nonzero;"/>
            </g>
        </g>
    </g>
    <defs>
        <linearGradient id="_Linear1" x1="0" y1="0" x2="1" y2="0" gradientUnits="userSpaceOnUse" gradientTransform="matrix(1,0,0,-1,0,1.85933e-06)"><stop offset="0" style="stop-color:rgb(218,218,218);stop-opacity:1"/><stop offset="0.12" style="stop-color:rgb(140,135,138);stop-opacity:1"/><stop offset="0.31" style="stop-color:rgb(246,246,246);stop-opacity:1"/><stop offset="0.48" style="stop-color:rgb(248,248,248);stop-opacity:1"/><stop offset="0.6" style="stop-color:rgb(246,246,246);stop-opacity:1"/><stop offset="0.74" style="stop-color:rgb(152,147,152);stop-opacity:1"/><stop offset="1" style="stop-color:rgb(231,228,225);stop-opacity:1"/></linearGradient>
        <linearGradient id="_Linear2" x1="0" y1="0" x2="1" y2="0" gradientUnits="userSpaceOnUse" gradientTransform="matrix(190.682,-0,0,190.682,-190.128,-71.7838)"><stop offset="0" style="stop-color:rgb(231,228,225);stop-opacity:1"/><stop offset="0.26" style="stop-color:rgb(152,147,152);stop-opacity:1"/><stop offset="0.52" style="stop-color:rgb(248,248,248);stop-opacity:1"/><stop offset="0.88" style="stop-color:rgb(140,135,138);stop-opacity:1"/><stop offset="1" style="stop-color:rgb(218,218,218);stop-opacity:1"/></linearGradient>
        <linearGradient id="_Linear3" x1="0" y1="0" x2="1" y2="0" gradientUnits="userSpaceOnUse" gradientTransform="matrix(168.354,-0,0,168.354,-84.1766,95.6096)"><stop offset="0" style="stop-color:rgb(231,228,225);stop-opacity:1"/><stop offset="0.26" style="stop-color:rgb(152,147,152);stop-opacity:1"/><stop offset="0.52" style="stop-color:rgb(248,248,248);stop-opacity:1"/><stop offset="0.88" style="stop-color:rgb(140,135,138);stop-opacity:1"/><stop offset="1" style="stop-color:rgb(218,218,218);stop-opacity:1"/></linearGradient>
    </defs>
</svg>
