<?xml version="1.0" encoding="UTF-8" standalone="no"?>
<!DOCTYPE svg PUBLIC "-//W3C//DTD SVG 1.1//EN" "http://www.w3.org/Graphics/SVG/1.1/DTD/svg11.dtd">
<svg width="100%" height="100%" viewBox="0 0 2806 657" version="1.1" xmlns="http://www.w3.org/2000/svg" xmlns:xlink="http://www.w3.org/1999/xlink" xml:space="preserve" xmlns:serif="http://www.serif.com/" style="fill-rule:evenodd;clip-rule:evenodd;stroke-linejoin:round;stroke-miterlimit:2;">
    <g transform="matrix(1,0,0,1,0,-2.10834)">
        <g transform="matrix(4.16667,0,0,4.16667,0,0)">
            <path d="M231.004,68.211L250.267,68.211L238.652,46.818L214.529,91.652L193.506,91.652L226.867,31.356L250.853,31.356L284.059,91.652L263.251,91.652L257.079,81.123L223.739,81.104" style="fill:rgb(234,38,62);fill-rule:nonzero;"/>
        </g>
        <g transform="matrix(4.16667,0,0,4.16667,0,0)">
            <path d="M290.006,31.399L352.978,31.399C358.632,31.399 362.421,34.393 364.345,40.382C364.734,41.441 364.929,42.582 364.929,43.808L364.929,55.634C364.929,59.925 363.118,63.433 359.497,66.163C357.491,67.389 355.36,68.004 353.103,68.004L343.993,68.004L367.185,91.527L367.185,91.652L344.288,91.652L308.517,56.05L308.517,55.883L347.671,55.883L347.671,44.645L307.098,44.645L307.098,44.77L306.93,91.527L306.803,91.652L290.006,91.652L289.714,91.36L289.714,31.691L290.006,31.399Z" style="fill:rgb(234,38,62);fill-rule:nonzero;"/>
        </g>
        <g transform="matrix(4.16667,0,0,4.16667,0,0)">
            <path d="M373.663,31.399L436.634,31.399C442.287,31.399 446.076,34.393 448,40.382C448.389,41.441 448.584,42.582 448.584,43.808L448.584,55.634C448.584,59.925 446.773,63.433 443.152,66.163C441.146,67.389 439.017,68.004 436.758,68.004L427.65,68.004L450.842,91.527L450.842,91.652L427.942,91.652L392.174,56.05L392.174,55.883L431.326,55.883L431.326,44.645L390.753,44.645L390.753,44.77L390.585,91.527L390.46,91.652L373.663,91.652L373.37,91.36L373.37,31.691L373.663,31.399Z" style="fill:rgb(234,38,62);fill-rule:nonzero;"/>
        </g>
        <g transform="matrix(4.16667,0,0,4.16667,0,0)">
            <path d="M474.158,44.895L474.158,79.62L514.689,79.62L514.689,44.895L474.158,44.895ZM469.353,31.399L519.494,31.399C525.206,31.733 529.077,34.517 531.113,40.09C531.584,41.651 531.822,43.014 531.822,44.186L531.822,79.203C531.822,83.771 529.844,87.407 525.888,90.106C524.023,91.138 521.932,91.652 519.619,91.652L469.225,91.652C463.263,91.652 459.338,88.591 457.442,82.462L457.026,79.203L457.026,44.186C457.026,39.7 458.961,36.122 462.831,33.447C464.755,32.302 466.927,31.733 469.353,31.399Z" style="fill:rgb(234,38,62);fill-rule:nonzero;"/>
        </g>
        <g transform="matrix(4.16667,0,0,4.16667,0,0)">
            <path d="M558.772,31.399C558.967,31.484 563.136,38.933 570.266,52.083L583.096,76.15L583.513,76.15L595.338,54.045L582.84,31.399L603.579,31.399C603.747,31.484 607.904,38.933 615.06,52.083L627.848,76.15L628.264,76.15L652.416,31.399L673.302,31.399L640.133,91.527L639.965,91.652L616.314,91.652C615.785,91.153 612.261,84.857 605.742,72.767L605.618,72.767C599.099,84.857 595.576,91.153 595.046,91.652L571.562,91.652C571.146,91.375 568.412,86.543 563.374,77.155L538.08,31.399" style="fill:rgb(234,38,62);fill-rule:nonzero;"/>
        </g>
        <g transform="matrix(4.16667,0,0,4.16667,0,0)">
            <path d="M215.768,111.444C215.138,110.706 214.307,110.136 213.29,109.724C212.266,109.317 210.956,109.113 209.352,109.113C208.05,109.113 206.874,109.281 205.841,109.616C204.8,109.956 203.935,110.427 203.23,111.029C202.532,111.633 201.995,112.349 201.626,113.178C201.256,114.005 201.08,114.92 201.08,115.922C201.08,116.882 201.256,117.779 201.626,118.607C201.995,119.435 202.541,120.155 203.255,120.77C203.977,121.382 204.85,121.862 205.892,122.21C206.925,122.558 208.1,122.732 209.402,122.732C211.006,122.732 212.316,122.516 213.341,122.087C214.357,121.658 215.34,120.962 216.272,120.002L222.192,122.15C220.983,123.683 219.32,124.874 217.204,125.723C215.079,126.572 212.409,126.995 209.201,126.995C206.891,126.995 204.8,126.737 202.927,126.215C201.054,125.693 199.442,124.952 198.09,123.989C196.738,123.029 195.688,121.868 194.957,120.509C194.218,119.147 193.857,117.62 193.857,115.922C193.857,114.287 194.235,112.787 195.008,111.429C195.772,110.069 196.847,108.903 198.216,107.931C199.585,106.959 201.222,106.203 203.129,105.66C205.035,105.12 207.143,104.847 209.452,104.847C211.09,104.847 212.577,104.967 213.912,105.201C215.256,105.435 216.448,105.765 217.498,106.182C218.556,106.602 219.471,107.103 220.261,107.685C221.042,108.27 221.722,108.909 222.293,109.602L215.768,111.444Z" style="fill:white;fill-rule:nonzero;"/>
        </g>
        <g transform="matrix(4.16667,0,0,4.16667,0,0)">
            <path d="M265.275,115.922C265.275,114.962 265.123,114.065 264.821,113.237C264.519,112.409 264.04,111.69 263.393,111.074C262.738,110.462 261.898,109.983 260.881,109.635C259.866,109.287 258.648,109.113 257.246,109.113C255.844,109.113 254.626,109.287 253.61,109.635C252.594,109.983 251.754,110.462 251.099,111.074C250.452,111.69 249.973,112.409 249.671,113.237C249.369,114.065 249.226,114.962 249.226,115.922C249.226,116.882 249.369,117.779 249.671,118.607C249.973,119.435 250.452,120.155 251.099,120.77C251.754,121.382 252.594,121.862 253.61,122.21C254.626,122.558 255.844,122.732 257.246,122.732C258.648,122.732 259.866,122.558 260.881,122.21C261.898,121.862 262.738,121.382 263.393,120.77C264.04,120.155 264.519,119.435 264.821,118.607C265.123,117.779 265.275,116.882 265.275,115.922ZM272.497,115.922C272.497,117.557 272.153,119.057 271.464,120.416C270.775,121.775 269.784,122.942 268.483,123.914C267.181,124.886 265.577,125.642 263.687,126.182C261.798,126.725 259.656,126.995 257.246,126.995C254.836,126.995 252.694,126.725 250.805,126.182C248.915,125.642 247.32,124.886 246.009,123.914C244.708,122.942 243.717,121.775 243.028,120.416C242.339,119.057 242.003,117.557 242.003,115.922C242.003,114.287 242.339,112.787 243.028,111.429C243.717,110.069 244.708,108.903 246.009,107.931C247.32,106.959 248.915,106.203 250.805,105.66C252.694,105.12 254.836,104.847 257.246,104.847C259.656,104.847 261.798,105.12 263.687,105.66C265.577,106.203 267.181,106.959 268.483,107.931C269.784,108.903 270.775,110.069 271.464,111.429C272.153,112.787 272.497,114.287 272.497,115.922Z" style="fill:white;fill-rule:nonzero;"/>
        </g>
        <g transform="matrix(4.16667,0,0,4.16667,0,0)">
            <path d="M320.039,126.659L320.039,118.775C320.039,118.49 320.047,118.121 320.064,117.671C320.081,117.221 320.089,116.762 320.089,116.291C320.089,115.82 320.097,115.379 320.114,114.971C320.131,114.563 320.139,114.254 320.139,114.05C319.871,114.461 319.509,115.001 319.064,115.676C318.611,116.351 318.149,116.996 317.679,117.608L310.557,127.151L303.478,117.608C303.007,116.996 302.554,116.351 302.1,115.676C301.655,115.001 301.294,114.461 301.034,114.05C301.034,114.254 301.042,114.563 301.059,114.971C301.076,115.379 301.084,115.82 301.084,116.291C301.084,116.762 301.092,117.221 301.109,117.671C301.126,118.121 301.134,118.49 301.134,118.775L301.134,126.659L294.206,126.659L294.206,105.186L301.034,105.186L308.315,114.908C308.55,115.217 308.785,115.538 309.012,115.877C309.247,116.213 309.474,116.546 309.692,116.873C309.902,117.2 310.104,117.506 310.288,117.794C310.473,118.079 310.608,118.316 310.708,118.499C310.943,118.091 311.279,117.542 311.716,116.858C312.144,116.171 312.598,115.523 313.068,114.908L320.139,105.186L327.059,105.186L327.059,126.659L320.039,126.659Z" style="fill:white;fill-rule:nonzero;"/>
        </g>
        <g transform="matrix(4.16667,0,0,4.16667,0,0)">
            <path d="M370.847,112.088C370.847,111.147 370.385,110.457 369.47,110.015C368.546,109.578 367.303,109.359 365.733,109.359L357.662,109.359L357.662,114.878L365.833,114.878C369.176,114.878 370.847,113.948 370.847,112.088ZM378.069,111.996C378.069,113.244 377.75,114.311 377.12,115.202C376.482,116.09 375.6,116.822 374.458,117.395C373.324,117.968 371.981,118.388 370.419,118.652C368.865,118.919 367.185,119.051 365.38,119.051L357.662,119.051L357.662,126.659L350.633,126.659L350.633,105.186L365.984,105.186C367.622,105.186 369.176,105.324 370.646,105.6C372.124,105.876 373.409,106.299 374.509,106.872C375.617,107.445 376.482,108.156 377.12,109.005C377.75,109.854 378.069,110.85 378.069,111.996Z" style="fill:white;fill-rule:nonzero;"/>
        </g>
        <g transform="matrix(4.16667,0,0,4.16667,0,0)">
            <path d="M420.698,115.922C420.698,114.962 420.547,114.065 420.245,113.237C419.942,112.409 419.464,111.69 418.817,111.074C418.162,110.462 417.322,109.983 416.306,109.635C415.29,109.287 414.072,109.113 412.669,109.113C411.267,109.113 410.049,109.287 409.033,109.635C408.017,109.983 407.177,110.462 406.522,111.074C405.875,111.69 405.397,112.409 405.094,113.237C404.792,114.065 404.649,114.962 404.649,115.922C404.649,116.882 404.792,117.779 405.094,118.607C405.397,119.435 405.875,120.155 406.522,120.77C407.177,121.382 408.017,121.862 409.033,122.21C410.049,122.558 411.267,122.732 412.669,122.732C414.072,122.732 415.29,122.558 416.306,122.21C417.322,121.862 418.162,121.382 418.817,120.77C419.464,120.155 419.942,119.435 420.245,118.607C420.547,117.779 420.698,116.882 420.698,115.922ZM427.92,115.922C427.92,117.557 427.576,119.057 426.888,120.416C426.199,121.775 425.208,122.942 423.906,123.914C422.604,124.886 421,125.642 419.111,126.182C417.221,126.725 415.08,126.995 412.669,126.995C410.259,126.995 408.118,126.725 406.228,126.182C404.339,125.642 402.743,124.886 401.433,123.914C400.131,122.942 399.14,121.775 398.452,120.416C397.763,119.057 397.427,117.557 397.427,115.922C397.427,114.287 397.763,112.787 398.452,111.429C399.14,110.069 400.131,108.903 401.433,107.931C402.743,106.959 404.339,106.203 406.228,105.66C408.118,105.12 410.259,104.847 412.669,104.847C415.08,104.847 417.221,105.12 419.111,105.66C421,106.203 422.604,106.959 423.906,107.931C425.208,108.903 426.199,110.069 426.888,111.429C427.576,112.787 427.92,114.287 427.92,115.922Z" style="fill:white;fill-rule:nonzero;"/>
        </g>
        <g transform="matrix(4.16667,0,0,4.16667,0,0)">
            <path d="M471.801,126.659L458.909,114.941C458.481,114.53 458.019,114.095 457.532,113.636C457.045,113.178 456.692,112.802 456.457,112.517C456.457,112.721 456.466,113.025 456.482,113.42C456.499,113.819 456.508,114.251 456.508,114.71C456.508,115.169 456.516,115.625 456.533,116.075C456.549,116.525 456.558,116.903 456.558,117.209L456.558,126.659L449.63,126.659L449.63,105.186L456.356,105.186L468.794,116.534C469.231,116.945 469.684,117.38 470.171,117.839C470.658,118.298 471.019,118.673 471.246,118.958C471.246,118.754 471.238,118.454 471.221,118.055C471.204,117.656 471.196,117.227 471.196,116.765C471.196,116.306 471.188,115.85 471.179,115.4C471.154,114.95 471.154,114.572 471.154,114.266L471.154,105.186L478.074,105.186L478.074,126.659L471.801,126.659Z" style="fill:white;fill-rule:nonzero;"/>
        </g>
        <g transform="matrix(4.16667,0,0,4.16667,0,0)">
            <path d="M501.639,126.659L501.639,105.186L526.019,105.186L526.019,109.389L508.668,109.389L508.668,113.099L518.745,113.099L518.745,117.272L508.668,117.272L508.668,122.456L526.774,122.456L526.774,126.659L501.639,126.659Z" style="fill:white;fill-rule:nonzero;"/>
        </g>
        <g transform="matrix(4.16667,0,0,4.16667,0,0)">
            <path d="M570.957,126.659L558.066,114.941C557.637,114.53 557.175,114.095 556.688,113.636C556.201,113.178 555.849,112.802 555.614,112.517C555.614,112.721 555.622,113.025 555.639,113.42C555.655,113.819 555.664,114.251 555.664,114.71C555.664,115.169 555.672,115.625 555.689,116.075C555.706,116.525 555.714,116.903 555.714,117.209L555.714,126.659L548.786,126.659L548.786,105.186L555.513,105.186L567.95,116.534C568.387,116.945 568.841,117.38 569.328,117.839C569.815,118.298 570.176,118.673 570.403,118.958C570.403,118.754 570.394,118.454 570.377,118.055C570.36,117.656 570.352,117.227 570.352,116.765C570.352,116.306 570.344,115.85 570.335,115.4C570.31,114.95 570.31,114.572 570.31,114.266L570.31,105.186L577.23,105.186L577.23,126.659L570.957,126.659Z" style="fill:white;fill-rule:nonzero;"/>
        </g>
        <g transform="matrix(4.16667,0,0,4.16667,0,0)">
            <path d="M615.643,109.419L615.643,126.659L608.622,126.659L608.622,109.419L598.544,109.419L598.544,105.186L625.729,105.186L625.729,109.419L615.643,109.419Z" style="fill:white;fill-rule:nonzero;"/>
        </g>
        <g transform="matrix(4.16667,0,0,4.16667,0,0)">
            <path d="M672.767,120.155C672.767,121.178 672.498,122.108 671.969,122.948C671.432,123.785 670.592,124.508 669.458,125.111C668.324,125.714 666.888,126.179 665.167,126.506C663.445,126.833 661.387,126.995 658.977,126.995C656.029,126.995 653.359,126.65 650.949,125.954C648.547,125.258 646.674,124.307 645.33,123.101L650.403,120.338C651.637,121.22 653.015,121.847 654.535,122.225C656.055,122.606 657.675,122.795 659.38,122.795C661.48,122.795 663.033,122.609 664.016,122.24C664.999,121.874 665.494,121.28 665.494,120.461C665.494,120.116 665.393,119.813 665.192,119.558C664.999,119.303 664.621,119.06 664.066,118.835C663.512,118.61 662.723,118.397 661.681,118.193C660.648,117.989 659.313,117.773 657.675,117.548C656.063,117.323 654.585,117.056 653.233,116.75C651.881,116.444 650.713,116.054 649.748,115.583C648.773,115.115 648.026,114.521 647.489,113.804C646.959,113.091 646.691,112.199 646.691,111.138C646.691,110.154 647.018,109.275 647.665,108.498C648.32,107.721 649.21,107.061 650.352,106.521C651.486,105.978 652.813,105.564 654.333,105.276C655.862,104.991 657.491,104.847 659.229,104.847C661.967,104.847 664.369,105.144 666.426,105.738C668.484,106.332 670.34,107.16 672.019,108.222L666.947,111.227C665.813,110.513 664.604,109.965 663.311,109.587C662.026,109.209 660.581,109.02 658.977,109.02C658.037,109.02 657.256,109.077 656.617,109.188C655.979,109.302 655.467,109.449 655.064,109.635C654.661,109.818 654.375,110.022 654.216,110.247C654.047,110.472 653.964,110.706 653.964,110.952C653.964,111.3 654.073,111.591 654.283,111.828C654.501,112.061 654.879,112.272 655.416,112.455C655.945,112.64 656.668,112.814 657.575,112.976C658.473,113.141 659.624,113.324 661.035,113.528C662.437,113.735 663.831,113.975 665.217,114.251C666.611,114.527 667.862,114.908 668.979,115.4C670.105,115.892 671.012,116.516 671.717,117.272C672.414,118.028 672.767,118.991 672.767,120.155Z" style="fill:white;fill-rule:nonzero;"/>
        </g>
        <g transform="matrix(4.16667,0,0,4.16667,0,0)">
            <path d="M157.494,79.254C157.494,35.763 122.238,0.506 78.747,0.506C35.256,0.506 0,35.763 0,79.254C0,122.744 35.256,158 78.747,158C122.238,158 157.494,122.744 157.494,79.254Z" style="fill:white;fill-rule:nonzero;"/>
        </g>
        <g transform="matrix(4.16667,0,0,4.16667,0,0)">
            <path d="M151.35,76.69L151.35,80.78C151.35,80.886 151.433,81.529 151.35,81.603C151.166,81.768 150.075,81.603 149.843,81.603L106.492,81.603C106.459,81.603 106.476,77.275 106.476,76.828C106.476,76.537 107.464,76.69 107.706,76.69L151.35,76.69Z" style="fill:rgb(140,35,50);fill-rule:nonzero;"/>
        </g>
        <g transform="matrix(4.16667,0,0,4.16667,0,0)">
            <path d="M79.287,79.255C79.287,93.722 85.527,107.891 96.569,117.334C99.256,119.632 102.199,121.631 105.333,123.271C93.218,114.807 85.426,101.113 83.538,86.549C81.589,71.504 85.819,55.842 95.609,44.166C98.444,40.785 101.714,37.767 105.333,35.238C92.729,41.83 83.68,54.078 80.552,67.881C79.707,71.609 79.287,75.432 79.287,79.255Z" style="fill:rgb(140,35,50);fill-rule:nonzero;"/>
        </g>
        <g transform="matrix(4.16667,0,0,4.16667,0,0)">
            <path d="M83.271,106.363C74.569,91.354 73.727,72.397 80.948,56.636C81.65,55.104 82.425,53.604 83.271,52.146C82.728,52.203 82.186,52.262 81.643,52.325C81.013,52.398 80.882,52.647 80.501,53.135C79.864,53.951 79.258,54.792 78.685,55.655C77.578,57.322 76.595,59.071 75.742,60.881C74.007,64.562 72.816,68.494 72.192,72.514C70.924,80.679 71.989,89.19 75.341,96.751C76.831,100.112 78.766,103.276 81.098,106.12" style="fill:rgb(222,30,54);fill-rule:nonzero;"/>
        </g>
        <g transform="matrix(4.16667,0,0,4.16667,0,0)">
            <path d="M68.443,79.255C68.443,64.916 75.175,50.782 87.036,42.495C74.181,49.218 66.015,62.812 65.333,77.188C64.644,91.707 71.536,106.108 83.798,114.115C84.846,114.8 85.927,115.434 87.036,116.014C75.175,107.727 68.443,93.593 68.443,79.255Z" style="fill:rgb(140,35,50);fill-rule:nonzero;"/>
        </g>
        <g transform="matrix(4.16667,0,0,4.16667,0,0)">
            <path d="M78.858,6.614C65.472,6.614 52.205,10.33 40.8,17.333C29.746,24.121 20.588,33.865 14.516,45.318C8.206,57.22 5.364,70.797 6.273,84.228C7.169,97.457 11.748,110.321 19.415,121.147C26.914,131.736 37.245,140.248 49.097,145.559C61.482,151.11 75.37,153.06 88.817,151.22C101.996,149.416 114.553,143.927 124.842,135.511C135.001,127.203 142.829,116.165 147.266,103.822C149.51,97.578 150.883,91.03 151.35,84.413L116.364,84.413C119.947,90.716 123.531,97.02 127.114,103.323C128.506,105.771 129.897,108.219 131.29,110.667C128.353,111.073 125.418,111.509 122.476,111.881C116.609,112.623 110.67,112.919 104.76,113.013C103.896,113.027 103.031,113.035 102.166,113.038C103.707,114.629 105.366,116.107 107.126,117.453C107.309,117.593 108.671,118.499 108.604,118.609C108.488,118.8 108.372,118.991 108.255,119.182C107.145,121.003 106.035,122.825 104.926,124.647C104.387,125.53 103.849,126.415 103.31,127.299C103.151,127.559 102.993,127.819 102.834,128.079C102.677,128.337 102.736,128.409 102.432,128.248C98.703,126.275 95.218,123.853 92.063,121.056C90.38,119.564 88.791,117.967 87.306,116.278C86.376,117.806 85.445,119.333 84.514,120.861C84.232,121.325 83.888,120.863 83.467,120.63C82.509,120.101 81.571,119.537 80.654,118.94C78.91,117.803 77.246,116.545 75.675,115.179C74.117,113.824 72.65,112.364 71.286,110.813C70.664,110.106 69.407,110.121 68.502,109.936C64.773,109.17 61.075,108.26 57.432,107.153C43.901,103.044 30.935,96.151 21.618,85.32C20.109,83.566 18.73,81.704 17.323,79.868C17.24,79.759 16.853,79.397 16.853,79.255C16.853,79.09 17.298,78.673 17.394,78.548C18.048,77.694 18.702,76.841 19.356,75.987C23.163,71.018 27.702,66.681 32.806,63.054C38.711,58.857 45.261,55.622 52.06,53.146C55.829,51.773 59.68,50.629 63.575,49.676C65.24,49.269 66.914,48.9 68.593,48.555C69.121,48.447 69.649,48.339 70.178,48.23C70.862,48.09 70.962,48.059 71.449,47.511C74.878,43.656 78.947,40.375 83.466,37.879C83.584,37.814 84.33,37.347 84.384,37.435C84.469,37.575 84.554,37.714 84.639,37.854C84.987,38.424 85.335,38.995 85.682,39.565C86.224,40.454 86.765,41.342 87.307,42.231C90.065,39.096 93.182,36.276 96.59,33.859C98.317,32.634 100.119,31.513 101.981,30.504C102.281,30.341 102.556,29.973 102.76,30.308C102.912,30.556 103.063,30.804 103.214,31.053C104.364,32.94 105.514,34.828 106.664,36.716C107.167,37.541 107.669,38.366 108.172,39.191C108.3,39.401 108.428,39.612 108.556,39.822C108.755,40.149 107.798,40.552 107.552,40.735C105.633,42.165 103.831,43.752 102.167,45.472C108.729,45.49 115.319,45.782 121.84,46.551C124.91,46.913 127.969,47.384 131.031,47.807C131.117,47.818 131.203,47.83 131.288,47.842C127.705,54.145 124.122,60.448 120.539,66.752C119.147,69.2 117.755,71.648 116.363,74.096L151.35,74.096C150.409,60.757 145.731,47.797 137.926,36.929C130.291,26.296 119.788,17.797 107.767,12.584C98.666,8.637 88.777,6.614 78.858,6.614Z" style="fill:rgb(140,35,50);fill-rule:nonzero;"/>
        </g>
        <g transform="matrix(4.16667,0,0,4.16667,0,0)">
            <path d="M69.437,104.254C64.826,97.229 62.303,88.944 62.072,80.557C62.067,80.407 62.096,79.255 62.017,79.255L24.107,79.255C33.638,91.699 48.261,98.883 63.149,102.788C65.231,103.334 67.328,103.821 69.437,104.254C64.705,97.044 52.369,100.749 69.437,104.254Z" style="fill:rgb(140,35,50);fill-rule:nonzero;"/>
        </g>
        <g transform="matrix(4.16667,0,0,4.16667,0,0)">
            <path d="M94.334,107.147C103.542,107.505 112.934,107.363 122.083,106.129C118.517,99.856 114.951,93.583 111.384,87.31C109.887,84.676 108.39,82.043 106.893,79.41C106.673,79.023 105.563,79.255 105.175,79.255L86.3,79.255C86.3,89.071 89.043,98.858 94.334,107.147C110.231,107.765 89.176,99.067 94.334,107.147Z" style="fill:rgb(140,35,50);fill-rule:nonzero;"/>
        </g>
        <g transform="matrix(4.16667,0,0,4.16667,0,0)">
            <path d="M69.437,54.255C64.826,61.28 62.303,69.565 62.072,77.952C62.067,78.102 62.096,79.255 62.017,79.255L24.107,79.255C33.638,66.81 48.261,59.627 63.149,55.721C65.231,55.175 67.328,54.688 69.437,54.255C64.705,61.466 52.369,57.76 69.437,54.255Z" style="fill:rgb(222,30,54);fill-rule:nonzero;"/>
        </g>
        <g transform="matrix(4.16667,0,0,4.16667,0,0)">
            <path d="M94.334,51.362C103.542,51.004 112.934,51.146 122.083,52.379C118.517,58.653 114.951,64.926 111.384,71.2C109.887,73.833 108.39,76.466 106.893,79.099C106.673,79.487 105.563,79.255 105.175,79.255L86.3,79.255C86.3,69.438 89.043,59.652 94.334,51.362C110.231,50.744 89.176,59.442 94.334,51.362Z" style="fill:rgb(222,30,54);fill-rule:nonzero;"/>
        </g>
    </g>
</svg>
