<?xml version="1.0" encoding="UTF-8" standalone="no"?>
<!DOCTYPE svg PUBLIC "-//W3C//DTD SVG 1.1//EN" "http://www.w3.org/Graphics/SVG/1.1/DTD/svg11.dtd">
<svg width="100%" height="100%" viewBox="0 0 100 100" version="1.1" xmlns="http://www.w3.org/2000/svg" xmlns:xlink="http://www.w3.org/1999/xlink" xml:space="preserve" xmlns:serif="http://www.serif.com/" style="fill-rule:evenodd;clip-rule:evenodd;stroke-linejoin:round;stroke-miterlimit:2;">
    <g transform="matrix(-0.215498,2.63909e-17,-2.78961e-17,-0.227789,84.6945,146.738)">
        <path d="M243.667,299.136L368.841,437.152L118.493,437.152L243.667,299.136Z" style="fill:white;"/>
    </g>
    <g transform="matrix(0.0590755,0,0,0.0590755,28.052,25.0918)">
        <g transform="matrix(6.65525,0,0,6.65525,-462.513,-389.243)">
            <path d="M157.494,79.254C157.494,35.763 122.238,0.506 78.747,0.506C35.256,0.506 0,35.763 0,79.254C0,122.744 35.256,158 78.747,158C122.238,158 157.494,122.744 157.494,79.254Z" style="fill:white;fill-rule:nonzero;"/>
        </g>
        <g transform="matrix(6.65525,0,0,6.65525,-462.513,-389.243)">
            <path d="M151.35,76.69L151.35,80.78C151.35,80.886 151.433,81.529 151.35,81.603C151.166,81.768 150.075,81.603 149.843,81.603L106.492,81.603C106.459,81.603 106.476,77.275 106.476,76.828C106.476,76.537 107.464,76.69 107.706,76.69L151.35,76.69Z" style="fill:rgb(140,35,50);fill-rule:nonzero;"/>
        </g>
        <g transform="matrix(6.65525,0,0,6.65525,-462.513,-389.243)">
            <path d="M79.287,79.255C79.287,93.722 85.527,107.891 96.569,117.334C99.256,119.632 102.199,121.631 105.333,123.271C93.218,114.807 85.426,101.113 83.538,86.549C81.589,71.504 85.819,55.842 95.609,44.166C98.444,40.785 101.714,37.767 105.333,35.238C92.729,41.83 83.68,54.078 80.552,67.881C79.707,71.609 79.287,75.432 79.287,79.255Z" style="fill:rgb(140,35,50);fill-rule:nonzero;"/>
        </g>
        <g transform="matrix(6.65525,0,0,6.65525,-462.513,-389.243)">
            <path d="M83.271,106.363C74.569,91.354 73.727,72.397 80.948,56.636C81.65,55.104 82.425,53.604 83.271,52.146C82.728,52.203 82.186,52.262 81.643,52.325C81.013,52.398 80.882,52.647 80.501,53.135C79.864,53.951 79.258,54.792 78.685,55.655C77.578,57.322 76.595,59.071 75.742,60.881C74.007,64.562 72.816,68.494 72.192,72.514C70.924,80.679 71.989,89.19 75.341,96.751C76.831,100.112 78.766,103.276 81.098,106.12" style="fill:rgb(222,30,54);fill-rule:nonzero;"/>
        </g>
        <g transform="matrix(6.65525,0,0,6.65525,-462.513,-389.243)">
            <path d="M68.443,79.255C68.443,64.916 75.175,50.782 87.036,42.495C74.181,49.218 66.015,62.812 65.333,77.188C64.644,91.707 71.536,106.108 83.798,114.115C84.846,114.8 85.927,115.434 87.036,116.014C75.175,107.727 68.443,93.593 68.443,79.255Z" style="fill:rgb(140,35,50);fill-rule:nonzero;"/>
        </g>
        <g transform="matrix(6.65525,0,0,6.65525,-462.513,-389.243)">
            <path d="M78.858,6.614C65.472,6.614 52.205,10.33 40.8,17.333C29.746,24.121 20.588,33.865 14.516,45.318C8.206,57.22 5.364,70.797 6.273,84.228C7.169,97.457 11.748,110.321 19.415,121.147C26.914,131.736 37.245,140.248 49.097,145.559C61.482,151.11 75.37,153.06 88.817,151.22C101.996,149.416 114.553,143.927 124.842,135.511C135.001,127.203 142.829,116.165 147.266,103.822C149.51,97.578 150.883,91.03 151.35,84.413L116.364,84.413C119.947,90.716 123.531,97.02 127.114,103.323C128.506,105.771 129.897,108.219 131.29,110.667C128.353,111.073 125.418,111.509 122.476,111.881C116.609,112.623 110.67,112.919 104.76,113.013C103.896,113.027 103.031,113.035 102.166,113.038C103.707,114.629 105.366,116.107 107.126,117.453C107.309,117.593 108.671,118.499 108.604,118.609C108.488,118.8 108.372,118.991 108.255,119.182C107.145,121.003 106.035,122.825 104.926,124.647C104.387,125.53 103.849,126.415 103.31,127.299C103.151,127.559 102.993,127.819 102.834,128.079C102.677,128.337 102.736,128.409 102.432,128.248C98.703,126.275 95.218,123.853 92.063,121.056C90.38,119.564 88.791,117.967 87.306,116.278C86.376,117.806 85.445,119.333 84.514,120.861C84.232,121.325 83.888,120.863 83.467,120.63C82.509,120.101 81.571,119.537 80.654,118.94C78.91,117.803 77.246,116.545 75.675,115.179C74.117,113.824 72.65,112.364 71.286,110.813C70.664,110.106 69.407,110.121 68.502,109.936C64.773,109.17 61.075,108.26 57.432,107.153C43.901,103.044 30.935,96.151 21.618,85.32C20.109,83.566 18.73,81.704 17.323,79.868C17.24,79.759 16.853,79.397 16.853,79.255C16.853,79.09 17.298,78.673 17.394,78.548C18.048,77.694 18.702,76.841 19.356,75.987C23.163,71.018 27.702,66.681 32.806,63.054C38.711,58.857 45.261,55.622 52.06,53.146C55.829,51.773 59.68,50.629 63.575,49.676C65.24,49.269 66.914,48.9 68.593,48.555C69.121,48.447 69.649,48.339 70.178,48.23C70.862,48.09 70.962,48.059 71.449,47.511C74.878,43.656 78.947,40.375 83.466,37.879C83.584,37.814 84.33,37.347 84.384,37.435C84.469,37.575 84.554,37.714 84.639,37.854C84.987,38.424 85.335,38.995 85.682,39.565C86.224,40.454 86.765,41.342 87.307,42.231C90.065,39.096 93.182,36.276 96.59,33.859C98.317,32.634 100.119,31.513 101.981,30.504C102.281,30.341 102.556,29.973 102.76,30.308C102.912,30.556 103.063,30.804 103.214,31.053C104.364,32.94 105.514,34.828 106.664,36.716C107.167,37.541 107.669,38.366 108.172,39.191C108.3,39.401 108.428,39.612 108.556,39.822C108.755,40.149 107.798,40.552 107.552,40.735C105.633,42.165 103.831,43.752 102.167,45.472C108.729,45.49 115.319,45.782 121.84,46.551C124.91,46.913 127.969,47.384 131.031,47.807C131.117,47.818 131.203,47.83 131.288,47.842C127.705,54.145 124.122,60.448 120.539,66.752C119.147,69.2 117.755,71.648 116.363,74.096L151.35,74.096C150.409,60.757 145.731,47.797 137.926,36.929C130.291,26.296 119.788,17.797 107.767,12.584C98.666,8.637 88.777,6.614 78.858,6.614Z" style="fill:rgb(140,35,50);fill-rule:nonzero;"/>
        </g>
        <g transform="matrix(6.65525,0,0,6.65525,-462.513,-389.243)">
            <path d="M69.437,104.254C64.826,97.229 62.303,88.944 62.072,80.557C62.067,80.407 62.096,79.255 62.017,79.255L24.107,79.255C33.638,91.699 48.261,98.883 63.149,102.788C65.231,103.334 67.328,103.821 69.437,104.254C64.705,97.044 52.369,100.749 69.437,104.254Z" style="fill:rgb(140,35,50);fill-rule:nonzero;"/>
        </g>
        <g transform="matrix(6.65525,0,0,6.65525,-462.513,-389.243)">
            <path d="M94.334,107.147C103.542,107.505 112.934,107.363 122.083,106.129C118.517,99.856 114.951,93.583 111.384,87.31C109.887,84.676 108.39,82.043 106.893,79.41C106.673,79.023 105.563,79.255 105.175,79.255L86.3,79.255C86.3,89.071 89.043,98.858 94.334,107.147C110.231,107.765 89.176,99.067 94.334,107.147Z" style="fill:rgb(140,35,50);fill-rule:nonzero;"/>
        </g>
        <g transform="matrix(6.65525,0,0,6.65525,-462.513,-389.243)">
            <path d="M69.437,54.255C64.826,61.28 62.303,69.565 62.072,77.952C62.067,78.102 62.096,79.255 62.017,79.255L24.107,79.255C33.638,66.81 48.261,59.627 63.149,55.721C65.231,55.175 67.328,54.688 69.437,54.255C64.705,61.466 52.369,57.76 69.437,54.255Z" style="fill:rgb(222,30,54);fill-rule:nonzero;"/>
        </g>
        <g transform="matrix(6.65525,0,0,6.65525,-462.513,-389.243)">
            <path d="M94.334,51.362C103.542,51.004 112.934,51.146 122.083,52.379C118.517,58.653 114.951,64.926 111.384,71.2C109.887,73.833 108.39,76.466 106.893,79.099C106.673,79.487 105.563,79.255 105.175,79.255L86.3,79.255C86.3,69.438 89.043,59.652 94.334,51.362C110.231,50.744 89.176,59.442 94.334,51.362Z" style="fill:rgb(222,30,54);fill-rule:nonzero;"/>
        </g>
    </g>
</svg>
