<svg xmlns="http://www.w3.org/2000/svg" width="50" height="61" viewBox="0 0 50 61">
  <defs>
    <radialGradient id="arrowloc-a" cx="48.411%" r="84.111%" fx="48.411%" fy="50%" gradientTransform="matrix(0 -1 .62922 0 .17 .984)">
      <stop offset="0%" stop-opacity=".25"/>
      <stop offset="100%" stop-opacity="0"/>
    </radialGradient>
  </defs>
  <g fill="none" fill-rule="evenodd" transform="translate(0 -.053)">
    <ellipse cx="25.245" cy="59.16" fill="url(#arrowloc-a)" rx="20.833" ry="1"/>
    <path fill="#FFF" d="M24.4784515,-2.13162821e-14 C37.9975993,-2.13162821e-14 48.956903,10.581466 48.956903,23.6341516 C48.956903,31.5717935 44.9038136,38.595502 38.6867402,42.8812855 L24.5098039,59.021694 L10.4270012,42.9885108 C4.12134142,38.7132198 -2.13162821e-14,31.6383475 -2.13162821e-14,23.6341516 C-2.13162821e-14,10.581466 10.9593037,-2.13162821e-14 24.4784515,-2.13162821e-14 Z" transform="translate(.3 .138)"/>
    <path fill="#8C2332" fill-rule="nonzero" d="M14.0970167,0.207085445 L14.0970167,1.43459192 C14.0970167,1.46640505 14.1228172,1.65938467 14.0970167,1.68159384 C14.0398204,1.73111427 13.7006838,1.68159384 13.6285668,1.68159384 L0.152937866,1.68159384 C0.142679838,1.68159384 0.147964277,0.382657887 0.147964277,0.248502534 C0.147964277,0.161166498 0.455083406,0.207085445 0.530308942,0.207085445 L14.0970167,0.207085445 Z" transform="translate(33.25 22.948)"/>
    <path fill="#8C2332" fill-rule="nonzero" d="M0.0892137552,13.2819802 C0.0892137552,17.6238717 2.02891352,21.8763263 5.46131172,24.7103957 C6.29656385,25.4000802 7.2113934,26.0000278 8.18559517,26.4922309 C4.41965565,23.9519827 1.99751774,19.842087 1.41063422,15.4710835 C0.804788892,10.9557204 2.11968152,6.25518093 5.16289637,2.75093505 C6.0441542,1.73621637 7.06063148,0.830442646 8.18559517,0.0714294723 C4.26765033,2.04984578 1.45477482,5.72576249 0.482438146,9.86837176 C0.21977047,10.9872334 0.0892137552,12.1346068 0.0892137552,13.2819802 Z" transform="translate(24.858 10.643)"/>
    <path fill="#DE1E36" fill-rule="nonzero" d="M3.81443202,16.3156319 C1.10942123,11.8110733 0.847686099,6.12162582 3.09232905,1.39137409 C3.31054527,0.931584378 3.55145349,0.481398628 3.81443202,0.0438180796 C3.64564084,0.0609251381 3.47716051,0.0786324443 3.30836932,0.0975402458 C3.11253425,0.119449286 3.07181299,0.19418012 2.9533794,0.340640551 C2.75536838,0.585541598 2.56699369,0.837945742 2.38887703,1.09695261 C2.04476683,1.59725904 1.73920195,2.12217562 1.47404748,2.66539976 C0.934723909,3.77015559 0.564502367,4.9502425 0.370532391,6.15674031 C-0.0236245484,8.60725141 0.307429979,11.1616054 1.3493969,13.4308417 C1.81256239,14.4395579 2.41405583,15.3891497 3.13895644,16.2427018" transform="translate(22.37 15.745)"/>
    <path fill="#8C2332" fill-rule="nonzero" d="M1.07025421,11.1811134 C1.07025421,6.87763776 3.16289184,2.6356875 6.84987564,0.148561297 C2.85390762,2.16629383 0.315512061,6.24617721 0.103512824,10.5607574 C-0.110662358,14.9182554 2.03171116,19.2403387 5.84334554,21.6434302 C6.16911563,21.8490151 6.50514374,22.0392936 6.84987564,22.2133654 C3.16289184,19.7262392 1.07025421,15.4842889 1.07025421,11.1811134 Z" transform="translate(20.506 12.743)"/>
    <path fill="#8C2332" fill-rule="nonzero" d="M22.6478598,0.184276034 C18.4868308,0.184276034 14.3627929,1.2995362 10.8175564,3.4013034 C7.38142798,5.43854398 4.5346699,8.36295061 2.64719282,11.8002689 C0.685733602,15.3723427 -0.197700168,19.447124 0.0848618647,23.4780872 C0.363382856,27.4484254 1.7867619,31.3092184 4.17004364,34.558359 C6.5011027,37.7363703 9.71248704,40.2910243 13.3966732,41.884982 C17.246542,43.5509694 21.5636174,44.1362109 25.7436082,43.583983 C29.8402914,43.0425596 33.7436264,41.3951799 36.941955,38.8693377 C40.0998733,36.3759089 42.5332018,33.0631421 43.9124402,29.3587136 C44.6099861,27.4847404 45.0367822,25.5195295 45.1819488,23.5336101 L34.3065745,23.5336101 C35.4203476,25.4252906 36.5344316,27.3172713 37.6482047,29.2089518 C38.0809069,29.943655 38.5132983,30.6783581 38.9463114,31.4130612 C38.0333482,31.5349115 37.1210042,31.6657655 36.2064855,31.7774116 C34.3827326,32.0001035 32.5365984,32.0889401 30.699479,32.1171518 C30.4309051,32.1213535 30.1620205,32.1237545 29.8931358,32.1246548 C30.3721546,32.6021519 30.8878536,33.0457349 31.4349484,33.4497016 C31.4918339,33.4917189 31.9152107,33.7636311 31.8943837,33.7966447 C31.8583252,33.8539684 31.8222667,33.911292 31.7858973,33.9686157 C31.4408546,34.5151412 31.0958118,35.0619668 30.7510799,35.6087924 C30.5835322,35.8738018 30.4162952,36.1394114 30.2487474,36.4047208 C30.1993224,36.482753 30.1502082,36.5607852 30.1007832,36.6388174 C30.0519798,36.7162494 30.0703199,36.7378583 29.9758217,36.6895384 C28.8166646,36.097394 27.7333547,35.3704941 26.7526251,34.5310477 C26.2294657,34.083263 25.7355261,33.6039652 25.2739149,33.0970561 C24.984825,33.5556453 24.6954243,34.0139344 24.4060236,34.4725236 C24.3183641,34.6117811 24.2114319,34.4731238 24.0805644,34.403195 C23.7827707,34.2444295 23.491194,34.0751596 23.2061452,33.8959857 C22.664024,33.5547449 22.1467707,33.1771891 21.6584265,32.76722 C21.1741232,32.3605522 20.7181073,31.9223714 20.2941088,31.4568793 C20.1007605,31.2446918 19.7100229,31.2491936 19.4287043,31.1936707 C18.2695472,30.9637759 17.1200264,30.6906632 15.9876023,30.3584261 C11.7815001,29.1252173 7.75102782,27.0564637 4.8548447,23.8058224 C4.38577307,23.2794052 3.95711186,22.7205747 3.51974686,22.1695473 C3.49394637,22.1368338 3.37364768,22.028189 3.37364768,21.9855714 C3.37364768,21.936051 3.51197563,21.8108993 3.54181717,21.7733838 C3.74511262,21.5170781 3.94840808,21.2610725 4.15170353,21.0047667 C5.3351069,19.5134514 6.74605197,18.2118143 8.3326269,17.1232652 C10.1681921,15.8636454 12.2042552,14.8927448 14.3177197,14.1496382 C15.4893108,13.7375682 16.6863916,13.3942265 17.8971497,13.1082085 C18.4147138,12.9860581 18.9350755,12.8753124 19.4569916,12.7717697 C19.62112,12.7393563 19.7852484,12.706943 19.9496877,12.6742295 C20.1623087,12.6322121 20.1933936,12.6229083 20.3447772,12.4584404 C21.4106795,11.3014631 22.6755254,10.3167568 24.0802535,9.56764768 C24.1169337,9.54813963 24.3488273,9.4079818 24.3656132,9.43439269 C24.3920354,9.47641003 24.4184576,9.51812724 24.4448798,9.56014458 C24.5530553,9.73121516 24.6612309,9.90258587 24.7690956,10.0736565 C24.9375759,10.3404665 25.1057454,10.6069765 25.2742258,10.8737866 C26.1315482,9.93289838 27.1004655,9.08654917 28.15984,8.36114987 C28.6966768,7.99349817 29.2568273,7.65705935 29.8356287,7.35423441 C29.9288835,7.30531422 30.0143671,7.19486865 30.0777803,7.29541014 C30.1250294,7.36984085 30.1719677,7.44427156 30.2189059,7.51900239 C30.5763826,8.08533606 30.9338593,8.65196986 31.2913361,9.21860366 C31.4476933,9.46620582 31.6037396,9.71380798 31.7600968,9.96141014 C31.7998856,10.0244361 31.8396743,10.0877623 31.879463,10.1507883 C31.941322,10.2489288 31.6438392,10.3698787 31.5673703,10.4248013 C30.9708504,10.8539784 30.4106999,11.3302749 29.8934467,11.8464879 C31.9332399,11.8518902 33.9817369,11.9395263 36.0087854,12.1703216 C36.9630928,12.2789664 37.9139808,12.4203247 38.8658015,12.5472771 C38.8925345,12.5505785 38.9192676,12.5541799 38.9456897,12.5577814 C37.8319166,14.4494619 36.7181435,16.3411425 35.6043704,18.2331231 C35.1716681,18.9678263 34.7389659,19.7025294 34.3062636,20.4372325 L45.1819488,20.4372325 C44.8894396,16.4338807 43.4352865,12.5442759 41.0091075,9.28253003 C38.635773,6.09131332 35.3709226,3.54056086 31.6342029,1.97601532 C28.8051632,0.791426548 25.7311743,0.184276034 22.6478598,0.184276034 Z" transform="translate(2.166 1.939)"/>
    <path fill="#8C2332" fill-rule="nonzero" d="M14.1240606,7.57932728 C12.6907344,5.47095735 11.9064615,2.9844314 11.8346554,0.467292808 C11.8331011,0.422274233 11.8421157,0.0765315774 11.8175586,0.0765315774 L0.0332608774,0.0765315774 C2.99596576,3.81127256 7.54151538,5.96736217 12.1694401,7.13934574 C12.8166284,7.30321335 13.4684794,7.44937366 14.1240606,7.57932728 C12.6531216,5.41543444 8.81848439,6.52739325 14.1240606,7.57932728 Z" transform="translate(7.76 23.848)"/>
    <path fill="#8C2332" fill-rule="nonzero" d="M2.59061824,8.44758553 C5.45291879,8.55502986 8.37241562,8.51241228 11.2163761,8.14205947 C10.1078874,6.25938266 8.9993987,4.37670586 7.89059917,2.49402905 C7.42525773,1.70350288 6.9599163,0.913276824 6.49457487,0.123050772 C6.42618802,0.00690284816 6.08114527,0.0765315774 5.96053573,0.0765315774 L0.0932547963,0.0765315774 C0.0932547963,3.02254712 0.945914484,5.95985908 2.59061824,8.44758553 C7.5321899,8.63306206 0.987257444,6.02258496 2.59061824,8.44758553 Z" transform="translate(27.034 23.848)"/>
    <path fill="#DE1E36" fill-rule="nonzero" d="M14.1240606,0.0765315774 C12.6907344,2.18490151 11.9064615,4.67142746 11.8346554,7.18856605 C11.8331011,7.23358463 11.8421157,7.57962741 11.8175586,7.57962741 L0.0332608774,7.57962741 C2.99596576,3.8445863 7.54151538,1.68879681 12.1694401,0.516513117 C12.8166284,0.352645504 13.4684794,0.206485197 14.1240606,0.0765315774 C12.6531216,2.24072454 8.81848439,1.12846561 14.1240606,0.0765315774 Z" transform="translate(7.76 16.345)"/>
    <path fill="#DE1E36" fill-rule="nonzero" d="M2.59061824,0.108644828 C5.45291879,0.00120049533 8.37241562,0.0438180796 11.2163761,0.413870766 C10.1078874,2.29684769 8.9993987,4.1795245 7.89059917,6.06250143 C7.42525773,6.85272748 6.9599163,7.64295353 6.49457487,8.43317959 C6.42618802,8.54962763 6.08114527,8.4799989 5.96053573,8.4799989 L0.0932547963,8.4799989 C0.0932547963,5.53368323 0.945914484,2.5966714 2.59061824,0.108644828 C7.5321899,-0.0768317013 0.987257444,2.5336454 2.59061824,0.108644828 Z" transform="translate(27.034 15.445)"/>
  </g>
</svg>
