
<svg width="100%" height="100%" viewBox="0 0 128 111" version="1.1" xmlns="http://www.w3.org/2000/svg" xmlns:xlink="http://www.w3.org/1999/xlink" xml:space="preserve" xmlns:serif="http://www.serif.com/" style="fill-rule:evenodd;clip-rule:evenodd;stroke-linejoin:round;stroke-miterlimit:2;">
    <g transform="matrix(1,0,0,1,0,-8.79459)">
        <path d="M61.1,40.7L75.6,40.7L75.6,32L61.1,32L61.1,40.7ZM78.5,55.3L93,55.3L93,43.6L78.5,43.6L78.5,55.3ZM43.6,40.7L58.1,40.7L58.1,32L43.6,32L43.6,40.7ZM78.5,40.7L93,40.7L93,32L78.5,32L78.5,40.7ZM61.1,55.3L75.6,55.3L75.6,43.6L61.1,43.6L61.1,55.3ZM45.1,98.9C39.5,98.9 34.9,103.5 34.9,109.1C34.9,114.7 39.5,119.3 45.1,119.3C50.7,119.3 55.3,114.7 55.3,109.1C55.3,103.5 50.7,98.9 45.1,98.9ZM100.4,98.9C94.8,98.9 90.2,103.5 90.2,109.1C90.2,114.7 94.8,119.3 100.4,119.3C106,119.3 110.6,114.7 110.6,109.1C110.5,103.5 106,98.9 100.4,98.9ZM109.6,43.6L96,43.6L96,55.2L105.7,55.2L109.6,43.6ZM110.5,40.7L113.4,32L96,32L96,40.7L110.5,40.7ZM43.6,55.3L58.1,55.3L58.1,43.6L43.6,43.6L43.6,55.3ZM61.1,66.9L75.6,66.9L75.6,58.2L61.1,58.2L61.1,66.9ZM78.5,66.9L93,66.9L93,58.2L78.5,58.2L78.5,66.9ZM104.7,58.2L96,58.2L96,66.9L101.8,66.9L104.8,57.9L104.7,58.2ZM33,75.7L107.6,75.7L128,23.3L23,23.3L20.5,11.1C20.2,9.7 19,8.8 17.7,8.8L2.9,8.8C1.3,8.7 0,10 0,11.6C0,13.2 1.3,14.5 2.9,14.5L15.4,14.5L31.3,93.6C31.6,95 32.8,95.9 34.1,95.9L113.4,95.9L113.4,90.1L36.4,90.1L33,75.7ZM32,69.8L23.3,29.1L119.3,29.1L104.8,69.8L32,69.8ZM43.6,66.9L58.1,66.9L58.1,58.2L43.6,58.2L43.6,66.9ZM33,55.3L40.8,55.3L40.8,43.6L31,43.6L33,55.3ZM34.9,66.9L40.7,66.9L40.7,58.2L33.4,58.2L34.9,66.9ZM30.6,41.2L30.5,40.7L40.7,40.7L40.7,32L29.1,32L30.6,41.2Z"/>
    </g>
</svg>
