<svg xmlns="http://www.w3.org/2000/svg" xmlns:xlink="http://www.w3.org/1999/xlink" width="27" height="20" viewBox="0 0 27 20">
  <defs>
    <path id="downloadicon-a" d="M142.180618,35.9461558 L162.378809,35.9461558 L162.378809,31.2071839 C162.378809,30.7254551 162.769327,30.3349367 163.251056,30.3349367 L163.687179,30.3349367 C164.168908,30.3349367 164.559427,30.7254551 164.559427,31.2071839 L164.559427,37.2545266 C164.559427,37.7362555 164.168908,38.1267738 163.687179,38.1267738 L140.872247,38.1267738 C140.390518,38.1267738 140,37.7362555 140,37.2545266 L140,31.2071839 C140,30.7254551 140.390518,30.3349367 140.872247,30.3349367 L141.308371,30.3349367 C141.7901,30.3349367 142.180618,30.7254551 142.180618,31.2071839 L142.180618,35.9461558 Z M150.049733,26.1522892 L150.049733,20.6541854 C150.049733,20.2928888 150.342622,20 150.703918,20 L153.594859,20 C153.956156,20 154.249045,20.2928888 154.249045,20.6541854 L154.249045,26.1522892 L157.249971,26.1522892 C157.458404,26.1522892 157.659947,26.2269277 157.818102,26.3626887 C158.183631,26.6764588 158.225589,27.2271391 157.911819,27.5926674 L152.861228,33.4763832 C152.832411,33.5099536 152.801082,33.5412829 152.767512,33.5700998 C152.401983,33.8838699 151.851303,33.8419115 151.537533,33.4763832 L146.486942,27.5926674 C146.351181,27.4345118 146.276543,27.2329692 146.276543,27.0245364 C146.276543,26.5428075 146.667061,26.1522892 147.14879,26.1522892 L150.049733,26.1522892 Z"/>
    <filter id="downloadicon-b" width="120.4%" height="127.6%" x="-10.2%" y="-13.8%" filterUnits="objectBoundingBox">
      <feGaussianBlur in="SourceAlpha" result="shadowBlurInner1" stdDeviation="1.5"/>
      <feOffset dy="1" in="shadowBlurInner1" result="shadowOffsetInner1"/>
      <feComposite in="shadowOffsetInner1" in2="SourceAlpha" k2="-1" k3="1" operator="arithmetic" result="shadowInnerInner1"/>
      <feColorMatrix in="shadowInnerInner1" values="0 0 0 0 0   0 0 0 0 0   0 0 0 0 0  0 0 0 0.5 0"/>
    </filter>
  </defs>
  <g fill="none" fill-rule="evenodd" transform="translate(-139 -19)">
    <use fill="#681420" xlink:href="#downloadicon-a"/>
    <use fill="#000" filter="url(#downloadicon-b)" xlink:href="#downloadicon-a"/>
    <use stroke="#DF1E36" xlink:href="#downloadicon-a"/>
  </g>
</svg>
