<?xml version="1.0" standalone="no"?>
<!DOCTYPE svg PUBLIC "-//W3C//DTD SVG 20010904//EN"
 "http://www.w3.org/TR/2001/REC-SVG-20010904/DTD/svg10.dtd">
<svg version="1.0" xmlns="http://www.w3.org/2000/svg"
 width="700.000000pt" height="700.000000pt" viewBox="0 0 700.000000 700.000000"
 preserveAspectRatio="xMidYMid meet">
<metadata>
Created by potrace 1.11, written by Peter Selinger 2001-2013
</metadata>
<g transform="translate(0.000000,700.000000) scale(0.100000,-0.100000)"
fill="#000000" stroke="none">
<path d="M3265 6719 c-1064 -80 -2014 -673 -2554 -1593 -495 -844 -575 -1884
-214 -2801 224 -569 597 -1052 1093 -1417 159 -116 256 -177 433 -268 341
-176 691 -284 1092 -336 183 -25 601 -25 780 0 757 103 1420 435 1929 967 494
516 800 1164 880 1869 8 68 13 126 12 127 -2 2 -349 2 -773 1 l-770 -3 327
-575 c180 -316 326 -577 324 -579 -3 -4 -303 -46 -474 -66 -111 -13 -269 -23
-680 -42 l-125 -5 81 -77 c45 -42 107 -94 138 -116 31 -22 55 -45 53 -50 -6
-27 -254 -424 -264 -425 -15 0 -112 56 -213 123 -121 81 -258 194 -365 303
l-100 101 -63 -103 c-35 -57 -68 -104 -72 -104 -17 0 -163 93 -260 164 -52 38
-150 123 -217 189 l-122 119 -113 23 c-833 169 -1510 506 -1963 976 -89 92
-315 367 -315 383 0 3 39 56 86 116 228 293 410 462 704 658 398 266 865 452
1444 577 l157 33 128 124 c70 68 163 149 207 182 82 60 251 166 265 166 4 0
36 -47 71 -105 l62 -104 111 109 c168 167 317 283 483 376 71 39 86 45 96 33
15 -16 242 -388 251 -410 3 -9 -17 -30 -57 -59 -34 -25 -98 -80 -142 -122
l-81 -77 175 -1 c283 -1 597 -26 944 -76 93 -13 171 -25 172 -27 1 -1 -144
-258 -323 -572 -179 -313 -327 -576 -330 -582 -4 -10 153 -13 765 -13 424 0
773 4 776 8 2 4 -1 59 -9 122 -72 613 -306 1182 -680 1650 -665 834 -1703
1289 -2760 1209z"/>
<path d="M4562 5393 c-178 -105 -398 -297 -535 -467 -262 -325 -420 -684 -483
-1096 -22 -142 -25 -481 -6 -615 104 -704 483 -1282 1067 -1625 51 -30 47 -26
-50 51 -259 205 -504 524 -649 846 -140 313 -204 594 -213 943 -12 436 67 800
253 1174 157 314 401 612 659 803 45 33 27 28 -43 -14z"/>
<path d="M3724 5052 c-579 -380 -899 -1084 -809 -1779 49 -376 199 -713 444
-1000 106 -124 275 -266 406 -342 l40 -23 -30 27 c-16 15 -64 58 -107 96 -223
200 -421 512 -523 822 -82 251 -110 450 -102 717 9 315 74 574 214 855 127
257 336 512 548 670 49 36 -1 10 -81 -43z"/>
<path d="M4255 4743 l-71 -4 -57 -102 c-324 -585 -382 -1263 -162 -1907 33
-98 176 -400 211 -445 14 -19 26 -20 412 -19 373 0 639 15 793 42 l36 7 -307
540 -308 540 959 3 959 2 0 110 0 110 -955 0 c-525 0 -955 2 -955 4 0 2 135
241 300 531 165 290 300 531 300 535 0 8 -138 25 -325 41 -129 10 -714 19
-830 12z"/>
<path d="M3584 4673 c-46 -50 -145 -205 -200 -314 -199 -398 -253 -889 -144
-1320 55 -217 166 -458 289 -629 65 -91 70 -95 112 -101 24 -4 45 -5 47 -4 1
1 -20 44 -47 96 -105 201 -187 450 -233 706 -20 112 -23 161 -23 398 0 239 3
285 23 398 47 257 122 487 227 693 l54 104 -40 0 c-31 0 -46 -6 -65 -27z"/>
<path d="M3035 4603 c-810 -190 -1354 -460 -1768 -878 -142 -144 -193 -209
-181 -234 17 -38 180 -215 273 -298 309 -275 689 -488 1149 -642 175 -59 549
-157 559 -147 3 2 -11 31 -30 63 -128 212 -222 481 -263 748 -22 149 -22 433
0 580 42 272 147 566 272 763 33 50 32 55 -11 45z"/>
</g>
</svg>
